# File produced by Open Asset Import Library (http://www.assimp.sf.net)
# (assimp v3.1.128981410)

mtllib Apple.mtl

# vertex positions
v 0.000000 -0.694299 0.000000
v -0.109761 -0.729475 -0.264987
v 0.000000 -0.729475 -0.286820
v 0.000000 -0.382684 -0.923880
v 0.000001 0.000000 -1.000000
v 0.382683 0.000000 -0.923880
v 0.353553 -0.382684 -0.853553
v 0.000000 0.382683 -0.923880
v 0.000000 0.653848 -0.707107
v 0.270598 0.653848 -0.653281
v 0.353553 0.382683 -0.853553
v 0.000000 0.713152 -0.489976
v 0.187506 0.713152 -0.452679
v 0.000000 -0.757283 -0.463522
v 0.000000 -0.661947 -0.707106
v 0.270598 -0.661947 -0.653281
v 0.177382 -0.757283 -0.428239
v 0.500000 0.653848 -0.500000
v 0.346465 0.713152 -0.346465
v 0.452678 0.713152 -0.187506
v 0.653281 0.653848 -0.270598
v 0.653281 0.382683 -0.653281
v 0.000000 0.666007 -0.257789
v 0.000000 0.546451 0.000000
v 0.098651 0.666007 -0.238166
v 0.327759 -0.757283 -0.327760
v 0.500000 -0.661947 -0.500000
v 0.653281 -0.661947 -0.270598
v 0.428238 -0.757283 -0.177382
v 0.653281 -0.382684 -0.653281
v 0.707107 0.000000 -0.707107
v 0.182284 0.666007 -0.182284
v 0.109761 -0.729475 -0.264987
v 0.202812 -0.729475 -0.202812
v 0.707107 -0.661947 0.000000
v 0.463522 -0.757283 0.000000
v 0.853553 -0.382684 -0.353553
v 0.853553 0.382683 -0.353553
v 0.923879 0.000000 -0.382683
v 0.238166 0.666007 -0.098652
v 0.264987 -0.729475 -0.109761
v 0.489976 0.713152 0.000000
v 0.707107 0.653848 0.000000
v 0.257789 0.666007 0.000000
v 0.286819 -0.729475 0.000000
v 1.000000 0.000000 0.000000
v 0.923879 -0.382684 0.000000
v 0.923879 0.382683 0.000000
v 0.452678 0.713152 0.187505
v 0.653281 0.653848 0.270598
v 0.653281 -0.661947 0.270598
v 0.428238 -0.757283 0.177382
v 0.264987 -0.729475 0.109761
v 0.923879 0.000000 0.382683
v 0.853553 -0.382684 0.353553
v 0.853553 0.382683 0.353553
v 0.346465 0.713152 0.346465
v 0.500000 0.653848 0.500000
v 0.500000 -0.661947 0.500000
v 0.327759 -0.757283 0.327759
v 0.238166 0.666007 0.098651
v 0.187505 0.713152 0.452678
v 0.270598 0.653848 0.653281
v 0.270598 -0.661947 0.653281
v 0.177382 -0.757283 0.428238
v 0.653281 -0.382684 0.653281
v 0.653281 0.382683 0.653281
v 0.707106 0.000000 0.707107
v 0.182284 0.666007 0.182284
v 0.202812 -0.729475 0.202812
v 0.353553 -0.382684 0.853553
v 0.353553 0.382683 0.853553
v 0.382683 0.000000 0.923879
v 0.098651 0.666007 0.238166
v 0.109761 -0.729475 0.264986
v 0.000000 0.713152 0.489975
v 0.000000 0.653848 0.707106
v 0.000000 -0.661947 0.707106
v 0.000000 -0.757283 0.463522
v 0.000000 -0.729475 0.286819
v 0.000000 0.000000 1.000000
v 0.000000 -0.382684 0.923879
v 0.000000 0.382683 0.923879
v -0.187506 0.713152 0.452678
v -0.270598 0.653848 0.653281
v -0.270598 -0.661947 0.653281
v -0.177382 -0.757283 0.428238
v 0.000000 0.666007 0.257789
v -0.382684 0.000000 0.923879
v -0.353554 -0.382684 0.853553
v -0.353554 0.382683 0.853553
v -0.346465 0.713152 0.346465
v -0.500000 0.653848 0.499999
v -0.500000 -0.661947 0.499999
v -0.327760 -0.757283 0.327759
v -0.098651 0.666007 0.238165
v -0.109761 -0.729475 0.264986
v -0.653281 -0.661947 0.270597
v -0.428238 -0.757283 0.177382
v -0.653282 -0.382684 0.653281
v -0.653282 0.382683 0.653281
v -0.707107 0.000000 0.707106
v -0.182284 0.666007 0.182284
v -0.202812 -0.729475 0.202812
v -0.452679 0.713152 0.187505
v -0.653281 0.653848 0.270597
v -0.853553 0.382683 0.353553
v -0.923879 0.000000 0.382683
v -0.238166 0.666007 0.098651
v -0.264987 -0.729475 0.109761
v -0.853553 -0.382684 0.353553
v -0.489976 0.713152 0.000000
v -0.707106 0.653848 0.000000
v -0.707106 -0.661947 0.000000
v -0.463522 -0.757283 0.000000
v -0.286819 -0.729475 0.000000
v -1.000000 0.000000 -0.000001
v -0.923879 -0.382684 -0.000001
v -0.923879 0.382683 -0.000001
v -0.452678 0.713152 -0.187506
v -0.653281 0.653848 -0.270598
v -0.653281 -0.661947 -0.270598
v -0.428238 -0.757283 -0.177382
v -0.257789 0.666007 0.000000
v -0.853553 0.382683 -0.353554
v -0.346465 0.713152 -0.346465
v -0.499999 0.653848 -0.500000
v -0.499999 -0.661947 -0.500000
v -0.327759 -0.757283 -0.327760
v -0.853553 -0.382684 -0.353554
v -0.923879 0.000000 -0.382684
v -0.238166 0.666007 -0.098652
v -0.264986 -0.729475 -0.109761
v -0.270598 -0.661947 -0.653281
v -0.177382 -0.757283 -0.428238
v -0.653281 -0.382684 -0.653282
v -0.653281 0.382683 -0.653282
v -0.707106 0.000000 -0.707107
v -0.182284 0.666007 -0.182284
v -0.202812 -0.729475 -0.202812
v -0.187505 0.713152 -0.452679
v -0.270598 0.653848 -0.653281
v -0.098651 0.666007 -0.238166
v -0.382683 0.000000 -0.923880
v -0.353553 -0.382684 -0.853553
v -0.353553 0.382683 -0.853553
v -0.021720 0.773960 -0.065749
v -0.059376 0.934094 -0.199686
v 0.014531 0.973422 -0.173135
v 0.033591 0.784654 -0.030623
v -0.004035 1.020427 -0.101303
v 0.015984 0.796398 0.032302
v -0.089416 1.010149 -0.083460
v -0.050209 0.792961 0.036066
v -0.123618 0.956792 -0.144264
v -0.073511 0.779094 -0.024532
v 0.000000 0.536921 -0.032451
v 0.030863 0.536921 -0.010028
v 0.019074 0.536921 0.026253
v -0.019074 0.536921 0.026253
v -0.030863 0.536921 -0.010028

# UV coordinates
vt 0.438615 0.518605
vt 0.490422 0.508046
vt 0.500970 0.527544
vt 0.656944 0.522199
vt 0.725929 0.493495
vt 0.753178 0.585432
vt 0.676942 0.602468
vt 0.777146 0.432018
vt 0.803985 0.346304
vt 0.864421 0.391650
vt 0.843118 0.515543
vt 0.803480 0.277584
vt 0.853194 0.302797
vt 0.538502 0.530935
vt 0.591963 0.532859
vt 0.599489 0.582874
vt 0.542082 0.561755
vt 0.451984 0.976491
vt 0.353478 0.999999
vt 0.333322 0.957745
vt 0.407151 0.928883
vt 0.925533 0.415387
vt 0.905336 0.581881
vt 0.783308 0.195961
vt 0.726243 0.087810
vt 0.815390 0.202228
vt 0.529626 0.586545
vt 0.580825 0.623506
vt 0.532330 0.642830
vt 0.499771 0.598279
vt 0.657711 0.677289
vt 0.749556 0.734632
vt 0.839461 0.195908
vt 0.502628 0.546121
vt 0.494304 0.560402
vt 0.469014 0.642440
vt 0.461178 0.598337
vt 0.559883 0.702259
vt 0.597609 0.889609
vt 0.499232 0.859719
vt 0.573011 0.776090
vt 0.252735 0.995295
vt 0.150808 0.972582
vt 0.247835 0.970487
vt 0.476636 0.567823
vt 0.293034 0.921403
vt 0.344696 0.890065
vt 0.229432 0.946799
vt 0.453275 0.567730
vt 0.450091 0.764724
vt 0.469067 0.701521
vt 0.404982 0.831353
vt 0.241321 0.885867
vt 0.273395 0.850783
vt 0.407193 0.623782
vt 0.420256 0.586042
vt 0.427870 0.560051
vt 0.353716 0.734667
vt 0.384988 0.675444
vt 0.315281 0.794968
vt 0.186866 0.853258
vt 0.205162 0.808279
vt 0.352333 0.591632
vt 0.383109 0.563814
vt 0.202383 0.923658
vt 0.132769 0.823698
vt 0.136130 0.765176
vt 0.308073 0.547767
vt 0.353519 0.534603
vt 0.311392 0.632881
vt 0.232215 0.745982
vt 0.267841 0.683853
vt 0.170609 0.905053
vt 0.404204 0.546055
vt 0.249892 0.572148
vt 0.153221 0.685218
vt 0.193454 0.615605
vt 0.138824 0.890948
vt 0.385707 0.527718
vt 0.080160 0.804357
vt 0.066690 0.727442
vt 0.279490 0.495350
vt 0.335699 0.501514
vt 0.375134 0.507710
vt 0.139247 0.523225
vt 0.204685 0.491976
vt 0.077326 0.612088
vt 0.030600 0.807645
vt 0.000000 0.705003
vt 0.275098 0.442337
vt 0.334907 0.470695
vt 0.109135 0.885465
vt 0.097632 0.359323
vt 0.193383 0.402149
vt 0.009901 0.543337
vt 0.345058 0.038524
vt 0.461555 0.008089
vt 0.481953 0.053225
vt 0.395096 0.080394
vt 0.308848 0.407405
vt 0.352234 0.448431
vt 0.084713 0.892700
vt 0.374957 0.489410
vt 0.363033 0.393255
vt 0.384726 0.438436
vt 0.266257 0.348124
vt 0.189155 0.141420
vt 0.290988 0.162847
vt 0.233248 0.271383
vt 0.585084 0.025280
vt 0.588171 0.050563
vt 0.384866 0.475809
vt 0.523430 0.090920
vt 0.462245 0.123079
vt 0.391940 0.178297
vt 0.343728 0.251378
vt 0.606201 0.076924
vt 0.403185 0.469067
vt 0.346291 0.329148
vt 0.577036 0.128720
vt 0.532644 0.155617
vt 0.419157 0.394786
vt 0.421805 0.439319
vt 0.426338 0.469485
vt 0.443979 0.272530
vt 0.423721 0.334355
vt 0.482464 0.208647
vt 0.634126 0.164695
vt 0.604225 0.195598
vt 0.473902 0.412882
vt 0.459471 0.450918
vt 0.635274 0.103308
vt 0.566879 0.248964
vt 0.692294 0.201943
vt 0.674738 0.241767
vt 0.523346 0.443670
vt 0.493443 0.472019
vt 0.497569 0.361830
vt 0.528526 0.305386
vt 0.670548 0.130782
vt 0.450688 0.476740
vt 0.563346 0.484479
vt 0.520977 0.499534
vt 0.561900 0.403111
vt 0.641824 0.299108
vt 0.605376 0.353771
vt 0.707929 0.156416
vt 0.472869 0.490336
vt 0.750071 0.241660
vt 0.737533 0.292977
vt 0.746425 0.179188
vt 0.671875 0.416614
vt 0.616748 0.456263
vt 0.714206 0.358779
vt 0.899803 0.305364
vt 0.012504 0.055553
vt 0.025784 0.000000
vt 0.046871 0.002507
vt 0.026745 0.061048
vt 0.068806 0.006496
vt 0.039949 0.067832
vt 0.077180 0.026911
vt 0.054432 0.074475
vt 0.096633 0.003823
vt 0.113910 0.024965
vt 0.094043 0.032171
vt 0.069568 0.081085
vt 0.083902 0.090294
vt 0.033618 0.140578
vt 0.009413 0.125927
vt 0.017886 0.124882
vt 0.026299 0.125754
vt 0.032544 0.130601
vt 0.000733 0.122665

# vertex normals
vn 0.000000 -1.000000 0.000000
vn 0.053798 -0.990054 0.129994
vn 0.000000 -0.990053 0.140693
vn 0.000000 -0.404802 -0.914404
vn 0.000000 0.000000 -1.000000
vn 0.382690 0.000000 -0.923877
vn 0.349904 -0.404804 -0.844808
vn 0.000000 0.410893 -0.911684
vn 0.000000 0.818009 -0.575206
vn 0.220105 0.818019 -0.531412
vn 0.348893 0.410892 -0.842283
vn 0.000000 0.998076 -0.061999
vn 0.023700 0.998081 -0.057199
vn 0.000000 -0.990109 -0.140301
vn 0.000000 -0.785308 -0.619106
vn 0.236900 -0.785299 -0.572000
vn 0.053701 -0.990111 -0.129601
vn 0.406713 0.818027 -0.406713
vn 0.043799 0.998080 -0.043799
vn 0.057199 0.998082 -0.023700
vn 0.531412 0.818019 -0.220105
vn 0.644646 0.410929 -0.644646
vn 0.000000 0.954343 0.298713
vn 0.000000 1.000000 0.000000
vn -0.114307 0.954360 0.275917
vn 0.099201 -0.990110 -0.099201
vn 0.437793 -0.785287 -0.437793
vn 0.572000 -0.785299 -0.236900
vn 0.129601 -0.990111 -0.053701
vn 0.646585 -0.404791 -0.646585
vn 0.707107 0.000000 -0.707107
vn -0.211211 0.954348 0.211211
vn -0.053798 -0.990054 0.129994
vn -0.099495 -0.990051 0.099495
vn 0.619106 -0.785308 0.000000
vn 0.140301 -0.990109 0.000000
vn 0.844808 -0.404804 -0.349904
vn 0.842284 0.410892 -0.348893
vn 0.923877 0.000000 -0.382690
vn -0.275917 0.954360 0.114307
vn -0.129994 -0.990054 0.053798
vn 0.061999 0.998076 0.000000
vn 0.575206 0.818009 0.000000
vn -0.298713 0.954343 0.000000
vn -0.140693 -0.990053 0.000000
vn 1.000000 0.000000 0.000000
vn 0.914404 -0.404802 0.000000
vn 0.911684 0.410893 0.000000
vn 0.057199 0.998082 0.023700
vn 0.531412 0.818019 0.220105
vn 0.572000 -0.785299 0.236900
vn 0.129601 -0.990111 0.053701
vn -0.129994 -0.990054 -0.053798
vn 0.923877 0.000000 0.382690
vn 0.844808 -0.404804 0.349904
vn 0.842284 0.410892 0.348893
vn 0.043799 0.998080 0.043799
vn 0.406713 0.818027 0.406713
vn 0.437793 -0.785287 0.437793
vn 0.099201 -0.990110 0.099201
vn -0.275917 0.954360 -0.114307
vn 0.023700 0.998081 0.057199
vn 0.220105 0.818019 0.531412
vn 0.236900 -0.785299 0.572000
vn 0.053701 -0.990111 0.129601
vn 0.646585 -0.404791 0.646585
vn 0.644646 0.410929 0.644646
vn 0.707107 0.000000 0.707107
vn -0.211211 0.954348 -0.211211
vn -0.099495 -0.990051 -0.099495
vn 0.349904 -0.404804 0.844808
vn 0.348893 0.410892 0.842283
vn 0.382690 0.000000 0.923877
vn -0.114307 0.954360 -0.275917
vn -0.053798 -0.990054 -0.129994
vn 0.000000 0.998076 0.061999
vn 0.000000 0.818009 0.575206
vn 0.000000 -0.785308 0.619106
vn 0.000000 -0.990109 0.140301
vn 0.000000 -0.990053 -0.140693
vn 0.000000 0.000000 1.000000
vn 0.000000 -0.404802 0.914404
vn 0.000000 0.410893 0.911684
vn -0.023700 0.998081 0.057199
vn -0.220105 0.818019 0.531412
vn -0.236900 -0.785299 0.572000
vn -0.053701 -0.990111 0.129601
vn 0.000000 0.954343 -0.298713
vn -0.382690 0.000000 0.923877
vn -0.349904 -0.404804 0.844808
vn -0.348893 0.410892 0.842283
vn -0.043799 0.998080 0.043799
vn -0.406713 0.818027 0.406713
vn -0.437793 -0.785287 0.437793
vn -0.099201 -0.990110 0.099201
vn 0.114307 0.954360 -0.275917
vn 0.053798 -0.990054 -0.129994
vn -0.572000 -0.785299 0.236900
vn -0.129601 -0.990111 0.053701
vn -0.646585 -0.404791 0.646585
vn -0.644646 0.410929 0.644646
vn -0.707107 0.000000 0.707107
vn 0.211211 0.954348 -0.211211
vn 0.099495 -0.990051 -0.099495
vn -0.057199 0.998082 0.023700
vn -0.531412 0.818019 0.220105
vn -0.842284 0.410892 0.348893
vn -0.923877 0.000000 0.382690
vn 0.275917 0.954360 -0.114307
vn 0.129994 -0.990054 -0.053798
vn -0.844808 -0.404804 0.349904
vn -0.061999 0.998076 0.000000
vn -0.575206 0.818009 0.000000
vn -0.619106 -0.785308 0.000000
vn -0.140301 -0.990109 0.000000
vn 0.140693 -0.990053 0.000000
vn -1.000000 0.000000 0.000000
vn -0.914404 -0.404802 0.000000
vn -0.911684 0.410893 0.000000
vn -0.057199 0.998082 -0.023700
vn -0.531412 0.818019 -0.220105
vn -0.572000 -0.785299 -0.236900
vn -0.129601 -0.990111 -0.053701
vn 0.298713 0.954343 0.000000
vn -0.842284 0.410892 -0.348893
vn -0.043799 0.998080 -0.043799
vn -0.406713 0.818027 -0.406713
vn -0.437793 -0.785287 -0.437793
vn -0.099201 -0.990110 -0.099201
vn -0.844808 -0.404804 -0.349904
vn -0.923877 0.000000 -0.382690
vn 0.275917 0.954360 0.114307
vn 0.129994 -0.990054 0.053798
vn -0.236900 -0.785299 -0.572000
vn -0.053701 -0.990111 -0.129601
vn -0.646585 -0.404791 -0.646585
vn -0.644646 0.410929 -0.644646
vn -0.707107 0.000000 -0.707107
vn 0.211211 0.954348 0.211211
vn 0.099495 -0.990051 0.099495
vn -0.023700 0.998081 -0.057199
vn -0.220105 0.818019 -0.531412
vn 0.114307 0.954360 0.275917
vn -0.382690 0.000000 -0.923877
vn -0.349904 -0.404804 -0.844808
vn -0.348893 0.410892 -0.842283
vn -0.028801 -0.423717 -0.905337
vn -0.158605 -0.037501 -0.986630
vn 0.645326 0.390716 -0.656426
vn 0.965751 -0.058403 -0.252813
vn 0.414196 0.898091 0.147899
vn 0.597014 0.224705 0.770118
vn -0.531898 0.791697 0.300499
vn -0.489305 0.144801 0.860008
vn -0.886990 0.214598 -0.408896
vn -0.968548 -0.229811 -0.095405
vn 0.001600 -0.648019 -0.761622
vn 0.753496 -0.609897 -0.245499
vn 0.496828 -0.598734 0.628236
vn -0.408687 -0.629980 0.660379
vn -0.720316 -0.664815 -0.197904

# Mesh
g Apple_Sphere
usemtl None
f 1/1/1 2/2/2 3/3/3
f 7/7/7 4/4/4 5/5/5
f 5/5/5 6/6/6 7/7/7
f 11/11/11 8/8/8 9/9/9
f 9/9/9 10/10/10 11/11/11
f 10/10/10 9/9/9 12/12/12
f 12/12/12 13/13/13 10/10/10
f 17/17/17 14/14/14 15/15/15
f 15/15/15 16/16/16 17/17/17
f 16/16/16 15/15/15 4/4/4
f 4/4/4 7/7/7 16/16/16
f 6/6/6 5/5/5 8/8/8
f 8/8/8 11/11/11 6/6/6
f 21/21/21 18/18/18 19/19/19
f 19/19/19 20/20/20 21/21/21
f 22/23/22 11/11/11 10/10/10
f 10/10/10 18/22/18 22/23/22
f 23/24/23 24/25/24 25/26/25
f 29/30/29 26/27/26 27/28/27
f 27/28/27 28/29/28 29/30/29
f 27/28/27 16/16/16 7/7/7
f 7/7/7 30/31/30 27/28/27
f 31/32/31 6/6/6 11/11/11
f 11/11/11 22/23/22 31/32/31
f 25/26/25 24/25/24 32/33/32
f 1/1/1 33/34/33 34/35/34
f 30/31/30 7/7/7 6/6/6
f 6/6/6 31/32/31 30/31/30
f 36/37/36 29/30/29 28/29/28
f 28/29/28 35/36/35 36/37/36
f 28/29/28 27/28/27 30/31/30
f 30/31/30 37/38/37 28/29/28
f 39/41/39 31/32/31 22/39/22
f 22/39/22 38/40/38 39/41/39
f 32/42/32 24/43/24 40/44/40
f 1/1/1 34/35/34 41/45/41
f 37/38/37 30/31/30 31/32/31
f 31/32/31 39/41/39 37/38/37
f 38/40/38 22/39/22 18/18/18
f 18/18/18 21/21/21 38/40/38
f 43/47/43 21/21/21 20/20/20
f 20/20/20 42/46/42 43/47/43
f 40/44/40 24/43/24 44/48/44
f 1/1/1 41/45/41 45/49/45
f 47/51/47 37/38/37 39/41/39
f 39/41/39 46/50/46 47/51/47
f 48/52/48 38/40/38 21/21/21
f 21/21/21 43/47/43 48/52/48
f 50/54/50 43/47/43 42/46/42
f 42/46/42 49/53/49 50/54/50
f 52/56/52 36/37/36 35/36/35
f 35/36/35 51/55/51 52/56/52
f 35/36/35 28/29/28 37/38/37
f 37/38/37 47/51/47 35/36/35
f 46/50/46 39/41/39 38/40/38
f 38/40/38 48/52/48 46/50/46
f 1/1/1 45/49/45 53/57/53
f 55/59/55 47/51/47 46/50/46
f 46/50/46 54/58/54 55/59/55
f 56/60/56 48/52/48 43/47/43
f 43/47/43 50/54/50 56/60/56
f 58/62/58 50/54/50 49/53/49
f 49/53/49 57/61/57 58/62/58
f 60/64/60 52/56/52 51/55/51
f 51/55/51 59/63/59 60/64/60
f 51/55/51 35/36/35 47/51/47
f 47/51/47 55/59/55 51/55/51
f 54/58/54 46/50/46 48/52/48
f 48/52/48 56/60/56 54/58/54
f 44/48/44 24/43/24 61/65/61
f 63/67/63 58/62/58 57/61/57
f 57/61/57 62/66/62 63/67/63
f 65/69/65 60/64/60 59/63/59
f 59/63/59 64/68/64 65/69/65
f 59/63/59 51/55/51 55/59/55
f 55/59/55 66/70/66 59/63/59
f 68/72/68 54/58/54 56/60/56
f 56/60/56 67/71/67 68/72/68
f 61/65/61 24/43/24 69/73/69
f 1/1/1 53/57/53 70/74/70
f 66/70/66 55/59/55 54/58/54
f 54/58/54 68/72/68 66/70/66
f 67/71/67 56/60/56 50/54/50
f 50/54/50 58/62/58 67/71/67
f 64/68/64 59/63/59 66/70/66
f 66/70/66 71/75/71 64/68/64
f 73/77/73 68/72/68 67/71/67
f 67/71/67 72/76/72 73/77/73
f 69/73/69 24/43/24 74/78/74
f 1/1/1 70/74/70 75/79/75
f 71/75/71 66/70/66 68/72/68
f 68/72/68 73/77/73 71/75/71
f 72/76/72 67/71/67 58/62/58
f 58/62/58 63/67/63 72/76/72
f 77/81/77 63/67/63 62/66/62
f 62/66/62 76/80/76 77/81/77
f 79/83/79 65/69/65 64/68/64
f 64/68/64 78/82/78 79/83/79
f 1/1/1 75/79/75 80/84/80
f 82/86/82 71/75/71 73/77/73
f 73/77/73 81/85/81 82/86/82
f 83/87/83 72/76/72 63/67/63
f 63/67/63 77/81/77 83/87/83
f 85/89/85 77/81/77 76/80/76
f 76/80/76 84/88/84 85/89/85
f 87/91/87 79/83/79 78/82/78
f 78/82/78 86/90/86 87/91/87
f 78/82/78 64/68/64 71/75/71
f 71/75/71 82/86/82 78/82/78
f 81/85/81 73/77/73 72/76/72
f 72/76/72 83/87/83 81/85/81
f 74/78/74 24/43/24 88/92/88
f 90/94/90 82/86/82 81/85/81
f 81/85/81 89/93/89 90/94/90
f 91/95/91 83/87/83 77/81/77
f 77/81/77 85/89/85 91/95/91
f 93/99/93 85/96/85 84/97/84
f 84/97/84 92/98/92 93/99/93
f 95/101/95 87/91/87 86/90/86
f 86/90/86 94/100/94 95/101/95
f 86/90/86 78/82/78 82/86/82
f 82/86/82 90/94/90 86/90/86
f 89/93/89 81/85/81 83/87/83
f 83/87/83 91/95/91 89/93/89
f 88/92/88 24/43/24 96/102/96
f 1/1/1 80/84/80 97/103/97
f 99/105/99 95/101/95 94/100/94
f 94/100/94 98/104/98 99/105/99
f 94/100/94 86/90/86 90/94/90
f 90/94/90 100/106/100 94/100/94
f 102/109/102 89/93/89 91/107/91
f 91/107/91 101/108/101 102/109/102
f 96/110/96 24/25/24 103/111/103
f 1/1/1 97/103/97 104/112/104
f 100/106/100 90/94/90 89/93/89
f 89/93/89 102/109/102 100/106/100
f 101/108/101 91/107/91 85/96/85
f 85/96/85 93/99/93 101/108/101
f 106/114/106 93/99/93 92/98/92
f 92/98/92 105/113/105 106/114/106
f 108/116/108 102/109/102 101/108/101
f 101/108/101 107/115/107 108/116/108
f 103/111/103 24/25/24 109/117/109
f 1/1/1 104/112/104 110/118/110
f 111/119/111 100/106/100 102/109/102
f 102/109/102 108/116/108 111/119/111
f 107/115/107 101/108/101 93/99/93
f 93/99/93 106/114/106 107/115/107
f 113/121/113 106/114/106 105/113/105
f 105/113/105 112/120/112 113/121/113
f 115/123/115 99/105/99 98/104/98
f 98/104/98 114/122/114 115/123/115
f 98/104/98 94/100/94 100/106/100
f 100/106/100 111/119/111 98/104/98
f 1/1/1 110/118/110 116/124/116
f 118/126/118 111/119/111 108/116/108
f 108/116/108 117/125/117 118/126/118
f 119/127/119 107/115/107 106/114/106
f 106/114/106 113/121/113 119/127/119
f 121/129/121 113/121/113 112/120/112
f 112/120/112 120/128/120 121/129/121
f 123/131/123 115/123/115 114/122/114
f 114/122/114 122/130/122 123/131/123
f 114/122/114 98/104/98 111/119/111
f 111/119/111 118/126/118 114/122/114
f 117/125/117 108/116/108 107/115/107
f 107/115/107 119/127/119 117/125/117
f 109/117/109 24/25/24 124/132/124
f 125/133/125 119/127/119 113/121/113
f 113/121/113 121/129/121 125/133/125
f 127/135/127 121/129/121 120/128/120
f 120/128/120 126/134/126 127/135/127
f 129/137/129 123/131/123 122/130/122
f 122/130/122 128/136/128 129/137/129
f 122/130/122 114/122/114 118/126/118
f 118/126/118 130/138/130 122/130/122
f 131/139/131 117/125/117 119/127/119
f 119/127/119 125/133/125 131/139/131
f 124/132/124 24/25/24 132/140/132
f 1/1/1 116/124/116 133/141/133
f 130/138/130 118/126/118 117/125/117
f 117/125/117 131/139/131 130/138/130
f 135/143/135 129/137/129 128/136/128
f 128/136/128 134/142/134 135/143/135
f 128/136/128 122/130/122 130/138/130
f 130/138/130 136/144/136 128/136/128
f 138/146/138 131/139/131 125/133/125
f 125/133/125 137/145/137 138/146/138
f 132/140/132 24/25/24 139/147/139
f 1/1/1 133/141/133 140/148/140
f 136/144/136 130/138/130 131/139/131
f 131/139/131 138/146/138 136/144/136
f 137/145/137 125/133/125 121/129/121
f 121/129/121 127/135/127 137/145/137
f 142/150/142 127/135/127 126/134/126
f 126/134/126 141/149/141 142/150/142
f 139/147/139 24/25/24 143/151/143
f 1/1/1 140/148/140 2/2/2
f 145/153/145 136/144/136 138/146/138
f 138/146/138 144/152/144 145/153/145
f 146/154/146 137/145/137 127/135/127
f 127/135/127 142/150/142 146/154/146
f 9/9/9 142/150/142 141/149/141
f 141/149/141 12/12/12 9/9/9
f 134/142/134 128/136/128 136/144/136
f 136/144/136 145/153/145 134/142/134
f 144/152/144 138/146/138 137/145/137
f 137/145/137 146/154/146 144/152/144
f 26/27/26 17/17/17 16/16/16
f 16/16/16 27/28/27 26/27/26
f 4/4/4 145/153/145 144/152/144
f 144/152/144 5/5/5 4/4/4
f 8/8/8 146/154/146 142/150/142
f 142/150/142 9/9/9 8/8/8
f 14/14/14 135/143/135 134/142/134
f 134/142/134 15/15/15 14/14/14
f 15/15/15 134/142/134 145/153/145
f 145/153/145 4/4/4 15/15/15
f 5/5/5 144/152/144 146/154/146
f 146/154/146 8/8/8 5/5/5
f 143/151/143 24/25/24 23/24/23
f 32/33/32 19/155/19 13/13/13
f 13/13/13 25/26/25 32/33/32
f 19/19/19 32/42/32 40/44/40
f 40/44/40 20/20/20 19/19/19
f 20/20/20 40/44/40 44/48/44
f 44/48/44 42/46/42 20/20/20
f 61/65/61 49/53/49 42/46/42
f 42/46/42 44/48/44 61/65/61
f 69/73/69 57/61/57 49/53/49
f 49/53/49 61/65/61 69/73/69
f 57/61/57 69/73/69 74/78/74
f 74/78/74 62/66/62 57/61/57
f 88/92/88 76/80/76 62/66/62
f 62/66/62 74/78/74 88/92/88
f 96/102/96 84/88/84 76/80/76
f 76/80/76 88/92/88 96/102/96
f 84/97/84 96/110/96 103/111/103
f 103/111/103 92/98/92 84/97/84
f 92/98/92 103/111/103 109/117/109
f 109/117/109 105/113/105 92/98/92
f 124/132/124 112/120/112 105/113/105
f 105/113/105 109/117/109 124/132/124
f 132/140/132 120/128/120 112/120/112
f 112/120/112 124/132/124 132/140/132
f 120/128/120 132/140/132 139/147/139
f 139/147/139 126/134/126 120/128/120
f 126/134/126 139/147/139 143/151/143
f 143/151/143 141/149/141 126/134/126
f 23/24/23 12/12/12 141/149/141
f 141/149/141 143/151/143 23/24/23
f 25/26/25 13/13/13 12/12/12
f 12/12/12 23/24/23 25/26/25
f 18/22/18 10/10/10 13/13/13
f 13/13/13 19/155/19 18/22/18
f 17/17/17 33/34/33 3/3/3
f 3/3/3 14/14/14 17/17/17
f 33/34/33 17/17/17 26/27/26
f 26/27/26 34/35/34 33/34/33
f 34/35/34 26/27/26 29/30/29
f 29/30/29 41/45/41 34/35/34
f 36/37/36 45/49/45 41/45/41
f 41/45/41 29/30/29 36/37/36
f 52/56/52 53/57/53 45/49/45
f 45/49/45 36/37/36 52/56/52
f 53/57/53 52/56/52 60/64/60
f 60/64/60 70/74/70 53/57/53
f 65/69/65 75/79/75 70/74/70
f 70/74/70 60/64/60 65/69/65
f 79/83/79 80/84/80 75/79/75
f 75/79/75 65/69/65 79/83/79
f 80/84/80 79/83/79 87/91/87
f 87/91/87 97/103/97 80/84/80
f 97/103/97 87/91/87 95/101/95
f 95/101/95 104/112/104 97/103/97
f 99/105/99 110/118/110 104/112/104
f 104/112/104 95/101/95 99/105/99
f 115/123/115 116/124/116 110/118/110
f 110/118/110 99/105/99 115/123/115
f 116/124/116 115/123/115 123/131/123
f 123/131/123 133/141/133 116/124/116
f 133/141/133 123/131/123 129/137/129
f 129/137/129 140/148/140 133/141/133
f 135/143/135 2/2/2 140/148/140
f 140/148/140 129/137/129 135/143/135
f 14/14/14 3/3/3 2/2/2
f 2/2/2 135/143/135 14/14/14
f 1/1/1 3/3/3 33/34/33
f 150/159/150 147/156/147 148/157/148
f 148/157/148 149/158/149 150/159/150
f 152/161/152 150/159/150 149/158/149
f 149/158/149 151/160/151 152/161/152
f 154/163/154 152/161/152 151/160/151
f 151/160/151 153/162/153 154/163/154
f 151/160/151 149/164/149 148/165/148
f 151/160/151 148/165/148 155/166/155
f 155/166/155 153/162/153 151/160/151
f 156/167/156 154/163/154 153/162/153
f 153/162/153 155/166/155 156/167/156
f 147/168/147 156/167/156 155/166/155
f 155/166/155 148/165/148 147/168/147
f 161/173/161 157/169/157 158/170/158
f 161/173/161 158/170/158 159/171/159
f 159/171/159 160/172/160 161/173/161
f 157/169/157 161/173/161 156/167/156
f 156/167/156 147/168/147 157/169/157
f 161/173/161 160/172/160 154/163/154
f 154/163/154 156/167/156 161/173/161
f 160/172/160 159/171/159 152/161/152
f 152/161/152 154/163/154 160/172/160
f 159/171/159 158/170/158 150/159/150
f 150/159/150 152/161/152 159/171/159
f 158/170/158 157/174/157 147/156/147
f 147/156/147 150/159/150 158/170/158
