# Blender v2.90.1 OBJ File: 'Cherry-Single_01blend.blend'
# www.blender.org
mtllib Cherry-Single.mtl
o Cherry
v -0.009821 -1.150422 0.077466
v -0.009821 -1.063541 -0.359319
v 0.215956 -1.097837 -0.313591
v 0.427576 -0.880470 -0.680128
v -0.009821 -0.816121 -0.729608
v -0.009821 -0.445832 -0.977027
v 0.573982 -0.488377 -0.933710
v 0.624140 -0.004594 -1.020586
v -0.009821 -0.009047 -1.063909
v -0.009821 0.427739 -0.977027
v 0.573982 0.478901 -0.933710
v 0.480685 0.830490 -0.772114
v -0.009821 0.754797 -0.819135
v -0.009821 0.922926 -0.541879
v 0.318069 0.980115 -0.490455
v -0.009821 0.821175 0.077466
v 0.402563 -1.155026 -0.160624
v 0.767073 -0.901649 -0.371075
v 1.005241 -0.490065 -0.508580
v 1.088875 -0.004567 -0.556867
v 1.005241 0.480930 -0.508580
v 0.853252 0.844462 -0.420830
v 0.586364 1.031341 -0.266741
v 1.162271 -0.490065 0.077466
v 1.258842 -0.004568 0.077466
v 1.162271 0.480930 0.077466
v 0.986771 0.844462 0.077466
v 0.678595 1.031341 0.077466
v 0.466360 -1.155026 0.077466
v 0.887260 -0.901649 0.077466
v 0.402563 -1.155026 0.315557
v 0.767073 -0.901649 0.526006
v 1.005241 -0.490065 0.663512
v 1.088875 -0.004568 0.711798
v 1.005241 0.480930 0.663512
v 0.853252 0.844461 0.575762
v 0.586364 1.031341 0.421675
v 0.624140 -0.004594 1.175519
v 0.573982 0.478900 1.088642
v 0.480685 0.830489 0.927048
v 0.318069 0.980115 0.645389
v 0.215956 -1.097837 0.468524
v 0.427576 -0.880471 0.835059
v 0.573982 -0.488378 1.088642
v -0.009821 -1.063541 0.514251
v -0.009821 -0.816121 0.884541
v -0.009821 -0.445833 1.131960
v -0.009821 -0.009048 1.218842
v -0.009821 0.427739 1.131961
v -0.009821 0.754797 0.974067
v -0.009821 0.922926 0.696811
v -0.593624 0.478900 1.088642
v -0.500327 0.830489 0.927048
v -0.337712 0.980115 0.645389
v -0.235598 -1.097837 0.468524
v -0.447218 -0.880471 0.835059
v -0.593624 -0.488378 1.088642
v -0.643782 -0.004594 1.175519
v -0.422205 -1.155026 0.315557
v -0.786717 -0.901649 0.526006
v -1.024883 -0.490065 0.663512
v -1.108517 -0.004568 0.711798
v -1.024883 0.480930 0.663512
v -0.872896 0.844461 0.575762
v -0.606007 1.031341 0.421675
v -1.006413 0.844462 0.077466
v -0.698237 1.031341 0.077466
v -0.486002 -1.155026 0.077466
v -0.906902 -0.901649 0.077466
v -1.181915 -0.490065 0.077466
v -1.278486 -0.004568 0.077466
v -1.181915 0.480930 0.077466
v -0.422205 -1.155026 -0.160624
v -0.786717 -0.901649 -0.371075
v -1.024883 -0.490065 -0.508580
v -1.108517 -0.004567 -0.556867
v -1.024883 0.480930 -0.508580
v -0.872896 0.844462 -0.420830
v -0.606007 1.031341 -0.266741
v -0.337712 0.980115 -0.490455
v -0.235598 -1.097837 -0.313591
v -0.447218 -0.880470 -0.680128
v -0.593624 -0.488377 -0.933710
v -0.643782 -0.004594 -1.020586
v -0.593624 0.478901 -0.933710
v -0.500327 0.830490 -0.772114
v 0.234125 1.587950 0.024972
v 0.129845 1.374851 0.025026
v 0.093347 1.386290 0.156006
v 0.207533 1.594263 0.096878
v -0.037998 1.086365 0.115271
v 0.032956 1.048824 0.180379
v 0.161525 1.367361 0.235186
v -0.158167 0.719691 0.122254
v -0.030546 0.719691 0.214976
v 0.253677 1.585421 0.140170
v -0.010821 1.073702 0.016474
v -0.109420 0.719691 -0.027773
v 0.260995 1.745686 -0.139563
v 0.231092 1.776142 -0.068593
v 0.099382 1.012146 0.122238
v 0.235005 1.342389 0.153270
v 0.048334 0.719665 -0.027708
v 0.077704 1.026730 0.021050
v 0.211302 1.347884 0.023282
v 0.293022 1.575778 0.023733
v 0.097238 0.719345 0.122891
v 0.335494 1.574562 0.095473
v 0.091221 2.006706 -0.097289
v 0.309227 1.773796 -0.006687
v 0.182672 2.010749 -0.023019
v 0.388045 1.749692 -0.040542
v 0.358124 1.732569 -0.122951
v 0.126333 1.984697 -0.196787
v 0.272544 1.992574 -0.077507
v 0.238407 1.979112 -0.184761
vt 0.749776 0.227462
vt 0.779938 0.220913
vt 0.785754 0.238890
vt 0.821889 0.250587
vt 0.809159 0.214263
vt 0.837960 0.206143
vt 0.857988 0.258345
vt 0.891826 0.254374
vt 0.866626 0.195041
vt 0.896194 0.180105
vt 0.927625 0.237052
vt 0.950675 0.209544
vt 0.919088 0.163550
vt 0.938147 0.144788
vt 0.963503 0.176523
vt 0.978682 0.100892
vt 0.782319 0.254607
vt 0.817353 0.282536
vt 0.856848 0.312392
vt 0.900558 0.341188
vt 0.957444 0.293007
vt 0.984583 0.246878
vt 0.995145 0.195714
vt 0.803851 0.332661
vt 0.816650 0.371009
vt 0.806241 0.409144
vt 0.881436 0.408356
vt 0.867804 0.445244
vt 0.802584 0.443979
vt 0.476895 0.411379
vt 0.487498 0.341546
vt 0.511553 0.409021
vt 0.769757 0.262825
vt 0.788951 0.297865
vt 0.520871 0.442167
vt 0.471045 0.445244
vt 0.751189 0.261474
vt 0.750789 0.295419
vt 0.747180 0.330695
vt 0.735760 0.363929
vt 0.723797 0.399071
vt 0.565368 0.418560
vt 0.542229 0.392494
vt 0.711045 0.426762
vt 0.671917 0.331943
vt 0.642432 0.360111
vt 0.606073 0.379062
vt 0.558527 0.364084
vt 0.732513 0.251835
vt 0.715143 0.278213
vt 0.695714 0.305308
vt 0.719613 0.236532
vt 0.690128 0.248534
vt 0.661123 0.263927
vt 0.632581 0.283164
vt 0.602802 0.304938
vt 0.576067 0.321267
vt 0.547290 0.328317
vt 0.574975 0.248846
vt 0.549662 0.271909
vt 0.529372 0.294429
vt 0.714100 0.218222
vt 0.677950 0.211165
vt 0.641551 0.210402
vt 0.607618 0.223829
vt 0.718215 0.200780
vt 0.684486 0.174562
vt 0.644315 0.150607
vt 0.591011 0.144280
vt 0.548417 0.195404
vt 0.522224 0.232429
vt 0.503774 0.266290
vt 0.478715 0.211356
vt 0.471290 0.256957
vt 0.730635 0.190002
vt 0.714099 0.149676
vt 0.706137 0.106852
vt 0.705491 0.050249
vt 0.498650 0.167958
vt 0.525779 0.121325
vt 0.749118 0.192765
vt 0.751853 0.157493
vt 0.759883 0.121080
vt 0.782603 0.095467
vt 0.820450 0.075762
vt 0.780746 0.028292
vt 0.844259 0.025569
vt 0.860266 0.072711
vt 0.900206 0.041101
vt 0.898422 0.073689
vt 0.915823 0.110838
vt 0.767099 0.204478
vt 0.784870 0.181432
vt 0.805262 0.160728
vt 0.831311 0.143926
vt 0.860494 0.127219
vt 0.887940 0.116595
vt 0.901882 0.878619
vt 0.898060 0.962461
vt 0.871834 0.917647
vt 0.891238 0.873967
vt 0.858649 0.956309
vt 0.834669 0.933014
vt 0.841838 0.895769
vt 0.833102 0.965094
vt 0.825372 0.959401
vt 0.881570 0.870003
vt 0.850131 0.988767
vt 0.823553 0.974690
vt 0.927902 0.846956
vt 0.920330 0.836936
vt 0.803691 0.941607
vt 0.794801 0.884700
vt 0.811904 0.972503
vt 0.790632 0.999999
vt 0.780056 0.874648
vt 0.910003 0.883378
vt 0.909751 0.999999
vt 0.816920 0.962765
vt 0.872022 0.859638
vt 0.864487 0.850616
vt 0.955203 0.793915
vt 0.907960 0.832006
vt 0.940986 0.788977
vt 0.944095 0.865609
vt 0.914508 0.893054
vt 0.934825 0.857754
vt 0.896276 0.828144
vt 0.956907 0.808390
vt 0.977474 0.799795
vt 0.979621 0.821908
vt 0.967011 0.816685
vt 0.927104 0.787673
vn -0.0000 -1.0000 -0.0000
vn -0.0000 -0.9155 -0.4024
vn 0.0117 -0.9258 -0.3777
vn 0.2256 -0.7223 -0.6537
vn 0.0001 -0.6936 -0.7203
vn -0.0000 -0.3666 -0.9304
vn 0.3678 -0.3899 -0.8442
vn 0.4140 0.0005 -0.9103
vn -0.0000 -0.0009 -1.0000
vn 0.0000 0.3032 -0.9529
vn 0.3786 0.3281 -0.8654
vn 0.2509 0.6785 -0.6904
vn 0.0001 0.6485 -0.7612
vn -0.0000 0.9740 -0.2265
vn -0.0475 0.9730 -0.2257
vn -0.0000 1.0000 0.0000
vn 0.2076 -0.9535 -0.2184
vn 0.5831 -0.7204 -0.3755
vn 0.7974 -0.3792 -0.4693
vn 0.8651 0.0001 -0.5017
vn 0.8185 0.3172 -0.4791
vn 0.6337 0.6668 -0.3922
vn 0.1256 0.9832 -0.1321
vn 0.9283 -0.3718 0.0000
vn 1.0000 -0.0000 0.0000
vn 0.9503 0.3114 -0.0000
vn 0.7599 0.6501 -0.0000
vn 0.1897 0.9818 0.0000
vn 0.3041 -0.9526 -0.0000
vn 0.7083 -0.7059 0.0000
vn 0.2076 -0.9535 0.2184
vn 0.5831 -0.7204 0.3755
vn 0.7974 -0.3792 0.4693
vn 0.8651 -0.0001 0.5017
vn 0.8185 0.3172 0.4790
vn 0.6337 0.6668 0.3922
vn 0.1257 0.9832 0.1321
vn 0.4141 0.0004 0.9102
vn 0.3784 0.3281 0.8655
vn 0.2509 0.6785 0.6904
vn -0.0475 0.9730 0.2257
vn 0.0117 -0.9258 0.3777
vn 0.2256 -0.7223 0.6537
vn 0.3679 -0.3898 0.8442
vn 0.0000 -0.9155 0.4024
vn -0.0000 -0.6937 0.7202
vn 0.0000 -0.3666 0.9304
vn 0.0000 -0.0009 1.0000
vn -0.0000 0.3032 0.9529
vn -0.0001 0.6485 0.7612
vn 0.0000 0.9740 0.2265
vn -0.3786 0.3281 0.8654
vn -0.2509 0.6785 0.6904
vn 0.0475 0.9730 0.2257
vn -0.0117 -0.9258 0.3777
vn -0.2256 -0.7223 0.6537
vn -0.3678 -0.3899 0.8442
vn -0.4140 0.0005 0.9103
vn -0.2076 -0.9535 0.2184
vn -0.5831 -0.7204 0.3755
vn -0.7974 -0.3792 0.4693
vn -0.8650 -0.0000 0.5017
vn -0.8185 0.3172 0.4791
vn -0.6337 0.6668 0.3922
vn -0.1256 0.9832 0.1321
vn -0.7599 0.6501 -0.0000
vn -0.1897 0.9818 0.0000
vn -0.3041 -0.9526 -0.0000
vn -0.7083 -0.7059 0.0000
vn -0.9283 -0.3718 -0.0000
vn -1.0000 0.0000 0.0000
vn -0.9503 0.3114 0.0000
vn -0.2076 -0.9535 -0.2184
vn -0.5831 -0.7204 -0.3755
vn -0.7974 -0.3792 -0.4693
vn -0.8651 -0.0001 -0.5017
vn -0.8185 0.3172 -0.4790
vn -0.6337 0.6668 -0.3922
vn -0.1257 0.9832 -0.1321
vn 0.0475 0.9730 -0.2257
vn -0.0117 -0.9258 -0.3777
vn -0.2256 -0.7223 -0.6537
vn -0.3679 -0.3898 -0.8442
vn -0.4141 0.0005 -0.9103
vn -0.3786 0.3281 -0.8655
vn -0.2509 0.6785 -0.6904
vn -0.6342 -0.1650 -0.7553
vn -0.5391 0.2670 -0.7988
vn -0.8567 0.4305 0.2843
vn -0.8194 0.5059 0.2696
vn -0.9140 0.3230 0.2454
vn -0.0464 0.0005 0.9989
vn -0.0135 0.1047 0.9944
vn -0.8438 -0.4774 0.2452
vn -0.0498 -0.5541 0.8309
vn 0.0542 0.4440 0.8944
vn -0.5648 0.2680 -0.7805
vn -0.5299 -0.5005 -0.6846
vn -0.4003 -0.4709 -0.7861
vn -0.9465 -0.2099 0.2453
vn 0.9232 -0.2036 0.3259
vn 0.8816 -0.3123 0.3539
vn 0.4724 -0.5700 -0.6722
vn 0.5954 -0.0680 -0.8005
vn 0.5642 -0.2340 -0.7918
vn 0.5265 -0.5156 -0.6760
vn 0.7591 -0.5983 0.2563
vn 0.9203 -0.0734 0.3844
vn -0.8640 0.4749 0.1674
vn 0.0789 0.4197 0.9042
vn -0.1926 0.6384 0.7452
vn 0.9799 0.0994 0.1728
vn 0.6049 -0.2934 -0.7403
vn -0.5635 0.3420 -0.7520
vn 0.6455 0.7453 0.1670
vn 0.4149 0.5252 -0.7430
usemtl None
s 1
f 1/1/1 2/2/2 3/3/3
f 4/4/4 5/5/5 6/6/6
f 6/6/6 7/7/7 4/4/4
f 8/8/8 9/9/9 10/10/10
f 10/10/10 11/11/11 8/8/8
f 12/12/12 13/13/13 14/14/14
f 14/14/14 15/15/15 12/12/12
f 3/3/3 2/2/2 5/5/5
f 5/5/5 4/4/4 3/3/3
f 7/7/7 6/6/6 9/9/9
f 9/9/9 8/8/8 7/7/7
f 11/11/11 10/10/10 13/13/13
f 13/13/13 12/12/12 11/11/11
f 14/14/14 16/16/16 15/15/15
f 17/17/17 3/3/3 4/4/4
f 4/4/4 18/18/18 17/17/17
f 19/19/19 7/7/7 8/8/8
f 8/8/8 20/20/20 19/19/19
f 21/21/21 11/11/11 12/12/12
f 12/12/12 22/22/22 21/21/21
f 15/15/15 16/16/16 23/23/23
f 1/1/1 3/3/3 17/17/17
f 18/18/18 4/4/4 7/7/7
f 7/7/7 19/19/19 18/18/18
f 20/20/20 8/8/8 11/11/11
f 11/11/11 21/21/21 20/20/20
f 22/22/22 12/12/12 15/15/15
f 15/15/15 23/23/23 22/22/22
f 24/24/24 19/19/19 20/20/20
f 20/20/20 25/25/25 24/24/24
f 26/26/26 21/27/21 22/28/22
f 22/28/22 27/29/27 26/26/26
f 23/30/23 16/31/16 28/32/28
f 1/1/1 17/17/17 29/33/29
f 30/34/30 18/18/18 19/19/19
f 19/19/19 24/24/24 30/34/30
f 25/25/25 20/20/20 21/27/21
f 21/27/21 26/26/26 25/25/25
f 27/35/27 22/36/22 23/30/23
f 23/30/23 28/32/28 27/35/27
f 29/33/29 17/17/17 18/18/18
f 18/18/18 30/34/30 29/33/29
f 1/1/1 29/33/29 31/37/31
f 32/38/32 30/34/30 24/24/24
f 24/24/24 33/39/33 32/38/32
f 34/40/34 25/25/25 26/26/26
f 26/26/26 35/41/35 34/40/34
f 36/42/36 27/35/27 28/32/28
f 28/32/28 37/43/37 36/42/36
f 31/37/31 29/33/29 30/34/30
f 30/34/30 32/38/32 31/37/31
f 33/39/33 24/24/24 25/25/25
f 25/25/25 34/40/34 33/39/33
f 35/41/35 26/26/26 27/29/27
f 27/29/27 36/44/36 35/41/35
f 28/32/28 16/31/16 37/43/37
f 38/45/38 34/40/34 35/41/35
f 35/41/35 39/46/39 38/45/38
f 40/47/40 36/42/36 37/43/37
f 37/43/37 41/48/41 40/47/40
f 42/49/42 31/37/31 32/38/32
f 32/38/32 43/50/43 42/49/42
f 44/51/44 33/39/33 34/40/34
f 34/40/34 38/45/38 44/51/44
f 39/46/39 35/41/35 36/44/36
f 36/44/36 40/47/40 39/46/39
f 37/43/37 16/31/16 41/48/41
f 1/1/1 31/37/31 42/49/42
f 43/50/43 32/38/32 33/39/33
f 33/39/33 44/51/44 43/50/43
f 45/52/45 42/49/42 43/50/43
f 43/50/43 46/53/46 45/52/45
f 47/54/47 44/51/44 38/45/38
f 38/45/38 48/55/48 47/54/47
f 49/56/49 39/46/39 40/47/40
f 40/47/40 50/57/50 49/56/49
f 41/48/41 16/31/16 51/58/51
f 1/1/1 42/49/42 45/52/45
f 46/53/46 43/50/43 44/51/44
f 44/51/44 47/54/47 46/53/46
f 48/55/48 38/45/38 39/46/39
f 39/46/39 49/56/49 48/55/48
f 50/57/50 40/47/40 41/48/41
f 41/48/41 51/58/51 50/57/50
f 52/59/52 49/56/49 50/57/50
f 50/57/50 53/60/53 52/59/52
f 51/58/51 16/31/16 54/61/54
f 1/1/1 45/52/45 55/62/55
f 56/63/56 46/53/46 47/54/47
f 47/54/47 57/64/57 56/63/56
f 58/65/58 48/55/48 49/56/49
f 49/56/49 52/59/52 58/65/58
f 53/60/53 50/57/50 51/58/51
f 51/58/51 54/61/54 53/60/53
f 55/62/55 45/52/45 46/53/46
f 46/53/46 56/63/56 55/62/55
f 57/64/57 47/54/47 48/55/48
f 48/55/48 58/65/58 57/64/57
f 1/1/1 55/62/55 59/66/59
f 60/67/60 56/63/56 57/64/57
f 57/64/57 61/68/61 60/67/60
f 62/69/62 58/65/58 52/59/52
f 52/59/52 63/70/63 62/69/62
f 64/71/64 53/60/53 54/61/54
f 54/61/54 65/72/65 64/71/64
f 59/66/59 55/62/55 56/63/56
f 56/63/56 60/67/60 59/66/59
f 61/68/61 57/64/57 58/65/58
f 58/65/58 62/69/62 61/68/61
f 63/70/63 52/59/52 53/60/53
f 53/60/53 64/71/64 63/70/63
f 54/61/54 16/31/16 65/72/65
f 66/73/66 64/71/64 65/72/65
f 65/72/65 67/74/67 66/73/66
f 68/75/68 59/66/59 60/67/60
f 60/67/60 69/76/69 68/75/68
f 70/77/70 61/68/61 62/69/62
f 62/69/62 71/78/71 70/77/70
f 72/79/72 63/70/63 64/71/64
f 64/71/64 66/73/66 72/79/72
f 65/72/65 16/31/16 67/74/67
f 1/1/1 59/66/59 68/75/68
f 69/76/69 60/67/60 61/68/61
f 61/68/61 70/77/70 69/76/69
f 71/80/71 62/69/62 63/70/63
f 63/70/63 72/79/72 71/80/71
f 73/81/73 68/75/68 69/76/69
f 69/76/69 74/82/74 73/81/73
f 75/83/75 70/77/70 71/78/71
f 71/78/71 76/84/76 75/83/75
f 77/85/77 72/86/72 66/87/66
f 66/87/66 78/88/78 77/85/77
f 67/89/67 16/16/16 79/90/79
f 1/1/1 68/75/68 73/81/73
f 74/82/74 69/76/69 70/77/70
f 70/77/70 75/83/75 74/82/74
f 76/84/76 71/78/71 72/86/72
f 72/86/72 77/85/77 76/84/76
f 78/88/78 66/87/66 67/89/67
f 67/89/67 79/90/79 78/88/78
f 79/90/79 16/16/16 80/91/80
f 1/1/1 73/81/73 81/92/81
f 82/93/82 74/82/74 75/83/75
f 75/83/75 83/94/83 82/93/82
f 84/95/84 76/84/76 77/85/77
f 77/85/77 85/96/85 84/95/84
f 86/97/86 78/88/78 79/90/79
f 79/90/79 80/91/80 86/97/86
f 81/92/81 73/81/73 74/82/74
f 74/82/74 82/93/82 81/92/81
f 83/94/83 75/83/75 76/84/76
f 76/84/76 84/95/84 83/94/83
f 85/96/85 77/85/77 78/88/78
f 78/88/78 86/97/86 85/96/85
f 5/5/5 82/93/82 83/94/83
f 83/94/83 6/6/6 5/5/5
f 9/9/9 84/95/84 85/96/85
f 85/96/85 10/10/10 9/9/9
f 13/13/13 86/97/86 80/91/80
f 80/91/80 14/14/14 13/13/13
f 2/2/2 81/92/81 82/93/82
f 82/93/82 5/5/5 2/2/2
f 6/6/6 83/94/83 84/95/84
f 84/95/84 9/9/9 6/6/6
f 10/10/10 85/96/85 86/97/86
f 86/97/86 13/13/13 10/10/10
f 80/91/80 16/16/16 14/14/14
f 1/1/1 81/92/81 2/2/2
f 87/98/87 88/99/88 89/100/89
f 89/100/89 90/101/90 87/98/87
f 89/100/89 91/102/91 92/103/92
f 92/103/92 93/104/93 89/100/89
f 94/105/94 95/106/95 92/103/92
f 92/103/92 91/102/91 94/105/94
f 90/101/90 89/100/89 93/104/93
f 93/104/93 96/107/96 90/101/90
f 88/99/88 97/108/97 91/102/91
f 91/102/91 89/100/89 88/99/88
f 98/109/98 94/105/94 91/102/91
f 91/102/91 97/108/97 98/109/98
f 99/110/99 87/98/87 90/101/90
f 90/101/90 100/111/100 99/110/99
f 93/104/93 92/103/92 101/112/101
f 101/112/101 102/113/102 93/104/93
f 103/114/103 98/109/98 97/108/97
f 97/108/97 104/115/104 103/114/103
f 102/113/102 101/112/101 104/115/104
f 104/115/104 105/116/105 102/113/102
f 106/117/106 105/118/105 88/99/88
f 88/99/88 87/98/87 106/117/106
f 107/119/107 103/114/103 104/115/104
f 104/115/104 101/112/101 107/119/107
f 108/120/108 102/113/102 105/116/105
f 105/116/105 106/121/106 108/120/108
f 105/118/105 104/115/104 97/108/97
f 97/108/97 88/99/88 105/118/105
f 95/106/95 107/119/107 101/112/101
f 101/112/101 92/103/92 95/106/95
f 107/119/107 95/106/95 94/105/94
f 107/119/107 94/105/94 98/109/98
f 98/109/98 103/114/103 107/119/107
f 96/107/96 93/104/93 102/113/102
f 102/113/102 108/120/108 96/107/96
f 109/122/109 100/111/100 110/123/110
f 110/123/110 111/124/111 109/122/109
f 112/125/112 108/126/108 106/117/106
f 106/117/106 113/127/113 112/125/112
f 100/111/100 90/101/90 96/107/96
f 96/107/96 110/123/110 100/111/100
f 113/127/113 106/117/106 87/98/87
f 87/98/87 99/110/99 113/127/113
f 110/123/110 96/107/96 108/120/108
f 108/120/108 112/128/112 110/123/110
f 114/129/114 109/122/109 111/130/111
f 114/129/114 111/130/111 115/131/115
f 115/131/115 116/132/116 114/129/114
f 116/132/116 113/127/113 99/110/99
f 99/110/99 114/129/114 116/132/116
f 111/124/111 110/123/110 112/128/112
f 112/128/112 115/133/115 111/124/111
f 114/129/114 99/110/99 100/111/100
f 100/111/100 109/122/109 114/129/114
f 115/131/115 112/125/112 113/127/113
f 113/127/113 116/132/116 115/131/115
