# File produced by Open Asset Import Library (http://www.assimp.sf.net)
# (assimp v3.1.128981410)

mtllib pillow.mtl

# vertex positions
v -1.558884 0.500000 0.000000
v -1.000000 0.809361 0.000000
v -1.000000 0.809361 -1.000000
v -1.558884 0.500000 -1.558884
v 0.000000 0.500000 -1.558884
v 0.000000 0.809361 -1.000000
v 1.000000 0.809361 -1.000000
v 1.558884 0.500000 -1.558884
v 1.558884 0.500000 0.000000
v 1.000000 0.809361 0.000000
v 1.000000 0.809361 1.000000
v 1.558884 0.500000 1.558884
v 0.000000 0.500000 1.558884
v 0.000000 0.809361 1.000000
v -1.000000 0.809361 1.000000
v -1.558884 0.500000 1.558884
v 0.000000 -0.852243 0.000000
v 1.000000 -0.852243 0.000000
v 1.000000 -0.852243 1.000000
v 0.000000 -0.852243 1.000000
v 0.000000 0.809361 0.000000
v 0.000000 -0.500000 1.515798
v 0.000000 0.000000 1.823559
v -1.823559 0.000000 1.823559
v -1.515798 -0.500000 1.515798
v 1.515798 -0.500000 0.000000
v 1.823559 0.000000 0.000000
v 1.823559 0.000000 1.823559
v 1.515798 -0.500000 1.515798
v 0.000000 -0.500000 -1.515798
v 0.000000 0.000000 -1.823559
v 1.823559 0.000000 -1.823559
v 1.515798 -0.500000 -1.515798
v -1.515798 -0.500000 0.000000
v -1.823559 0.000000 0.000000
v -1.823559 0.000000 -1.823559
v -1.515798 -0.500000 -1.515798
v -1.000000 -0.852243 0.000000
v -1.000000 -0.852243 -1.000000
v 0.000000 -0.852243 -1.000000
v 1.000000 -0.852243 -1.000000
v -1.000000 -0.852243 1.000000

# UV coordinates
vt 0.466489 0.907763
vt 0.507257 0.829104
vt 0.650602 0.845515
vt 0.704460 0.930611
vt 0.785656 0.705758
vt 0.697118 0.708938
vt 0.684003 0.558132
vt 0.708264 0.425996
vt 0.577005 0.499449
vt 0.591343 0.588551
vt 0.503709 0.613427
vt 0.465284 0.552715
vt 0.369329 0.630890
vt 0.443721 0.681983
vt 0.376572 0.752709
vt 0.246766 0.718083
vt 0.293844 0.281840
vt 0.410312 0.315486
vt 0.369311 0.401077
vt 0.274407 0.401502
vt 0.571242 0.720127
vt 0.284294 0.489796
vt 0.314714 0.568962
vt 0.136480 0.677974
vt 0.149286 0.552063
vt 0.485879 0.362210
vt 0.544410 0.423585
vt 0.435869 0.506239
vt 0.404842 0.457217
vt 0.387400 0.088782
vt 0.416920 0.014997
vt 0.719214 0.309155
vt 0.599937 0.266841
vt 0.079321 0.283770
vt 0.000000 0.278871
vt 0.115464 0.000000
vt 0.161541 0.072802
vt 0.862202 0.709373
vt 0.436997 0.978491
vt 0.748376 0.999999
vt 0.167972 0.282604
vt 0.213551 0.154978
vt 0.348405 0.168405
vt 0.471722 0.233816
vt 0.174312 0.422051

# vertex normals
vn -0.713676 0.700476 0.000000
vn -0.250105 0.968219 0.000000
vn -0.191413 0.962664 -0.191413
vn -0.478181 0.736672 -0.478181
vn 0.000000 0.700476 -0.713676
vn 0.000000 0.968219 -0.250105
vn 0.191413 0.962664 -0.191413
vn 0.478181 0.736672 -0.478181
vn 0.713676 0.700476 0.000000
vn 0.250105 0.968219 0.000000
vn 0.191413 0.962664 0.191413
vn 0.478181 0.736672 0.478181
vn 0.000000 0.700476 0.713676
vn 0.000000 0.968219 0.250105
vn -0.191413 0.962664 0.191413
vn -0.478181 0.736672 0.478181
vn 0.000000 -1.000000 0.000000
vn 0.295119 -0.955461 0.000000
vn 0.227507 -0.946827 0.227507
vn 0.000000 -0.955461 0.295119
vn 0.000000 1.000000 0.000000
vn 0.000000 -0.690107 0.723707
vn 0.000000 -0.032399 0.999475
vn -0.706801 -0.029400 0.706801
vn -0.467211 -0.750618 0.467211
vn 0.723707 -0.690107 0.000000
vn 0.999475 -0.032399 0.000000
vn 0.706801 -0.029400 0.706801
vn 0.467211 -0.750618 0.467211
vn 0.000000 -0.690107 -0.723707
vn 0.000000 -0.032399 -0.999475
vn 0.706801 -0.029400 -0.706801
vn 0.467211 -0.750618 -0.467211
vn -0.723707 -0.690107 0.000000
vn -0.999475 -0.032399 0.000000
vn -0.706801 -0.029400 -0.706801
vn -0.467211 -0.750618 -0.467211
vn -0.295119 -0.955461 0.000000
vn -0.227507 -0.946827 -0.227507
vn 0.000000 -0.955461 -0.295119
vn 0.227507 -0.946827 -0.227507
vn -0.227507 -0.946827 0.227507

# Mesh
g Cube
usemtl None
f 4/4/4 1/1/1 2/2/2
f 2/2/2 3/3/3 4/4/4
f 8/8/8 5/5/5 6/6/6
f 6/6/6 7/7/7 8/8/8
f 12/12/12 9/9/9 10/10/10
f 10/10/10 11/11/11 12/12/12
f 16/16/16 13/13/13 14/14/14
f 14/14/14 15/15/15 16/16/16
f 20/20/20 17/17/17 18/18/18
f 18/18/18 19/19/19 20/20/20
f 14/14/14 21/21/21 2/2/2
f 2/2/2 15/15/15 14/14/14
f 25/25/25 22/22/22 23/23/23
f 23/23/23 24/24/24 25/25/25
f 29/29/29 26/26/26 27/27/27
f 27/27/27 28/28/28 29/29/29
f 33/33/33 30/30/30 31/31/31
f 31/31/31 32/32/32 33/33/33
f 37/37/37 34/34/34 35/35/35
f 35/35/35 36/36/36 37/37/37
f 24/24/24 23/23/23 13/13/13
f 13/13/13 16/16/16 24/24/24
f 28/28/28 27/27/27 9/9/9
f 9/9/9 12/12/12 28/28/28
f 32/32/32 31/38/31 5/5/5
f 5/5/5 8/8/8 32/32/32
f 36/40/36 35/39/35 1/1/1
f 1/1/1 4/4/4 36/40/36
f 39/42/39 38/41/38 34/34/34
f 34/34/34 37/37/37 39/42/39
f 41/44/41 40/43/40 30/30/30
f 30/30/30 33/33/33 41/44/41
f 19/19/19 18/18/18 26/26/26
f 26/26/26 29/29/29 19/19/19
f 42/45/42 20/20/20 22/22/22
f 22/22/22 25/25/25 42/45/42
f 20/20/20 19/19/19 29/29/29
f 29/29/29 22/22/22 20/20/20
f 40/43/40 39/42/39 37/37/37
f 37/37/37 30/30/30 40/43/40
f 31/38/31 36/40/36 4/4/4
f 4/4/4 5/5/5 31/38/31
f 23/23/23 28/28/28 12/12/12
f 12/12/12 13/13/13 23/23/23
f 30/30/30 37/37/37 36/36/36
f 36/36/36 31/31/31 30/30/30
f 22/22/22 29/29/29 28/28/28
f 28/28/28 23/23/23 22/22/22
f 11/11/11 10/10/10 21/21/21
f 21/21/21 14/14/14 11/11/11
f 42/45/42 38/41/38 17/17/17
f 17/17/17 20/20/20 42/45/42
f 13/13/13 12/12/12 11/11/11
f 11/11/11 14/14/14 13/13/13
f 5/5/5 4/4/4 3/3/3
f 3/3/3 6/6/6 5/5/5
f 38/41/38 39/42/39 40/43/40
f 40/43/40 17/17/17 38/41/38
f 10/10/10 7/7/7 6/6/6
f 6/6/6 21/21/21 10/10/10
f 18/18/18 41/44/41 33/33/33
f 33/33/33 26/26/26 18/18/18
f 38/41/38 42/45/42 25/25/25
f 25/25/25 34/34/34 38/41/38
f 35/39/35 24/24/24 16/16/16
f 16/16/16 1/1/1 35/39/35
f 27/27/27 32/32/32 8/8/8
f 8/8/8 9/9/9 27/27/27
f 34/34/34 25/25/25 24/24/24
f 24/24/24 35/35/35 34/34/34
f 26/26/26 33/33/33 32/32/32
f 32/32/32 27/27/27 26/26/26
f 21/21/21 6/6/6 3/3/3
f 3/3/3 2/2/2 21/21/21
f 17/17/17 40/43/40 41/44/41
f 41/44/41 18/18/18 17/17/17
f 9/9/9 8/8/8 7/7/7
f 7/7/7 10/10/10 9/9/9
f 1/1/1 16/16/16 15/15/15
f 15/15/15 2/2/2 1/1/1
