# File produced by Open Asset Import Library (http://www.assimp.sf.net)
# (assimp v3.1.128981410)

mtllib Tree.mtl

# vertex positions
v 0.066408 0.079728 -0.660866
v 0.000000 0.567255 -0.488546
v 0.126445 0.567255 -0.471899
v 0.258819 0.079728 -0.965926
v 0.244273 0.567255 -0.423093
v 0.500000 0.079728 -0.866025
v 0.345454 0.567255 -0.345454
v 0.498532 0.079728 -0.623134
v 0.423093 0.567255 -0.244273
v 0.720420 0.079728 -0.333964
v 0.471899 0.567255 -0.126445
v 0.914174 0.079728 -0.257526
v 0.488546 0.567255 0.000000
v 0.864244 0.079728 -0.001293
v 0.471899 0.567255 0.126445
v 0.653414 0.079728 0.196317
v 0.423093 0.567255 0.244273
v 0.553514 0.079728 0.437497
v 0.345454 0.567255 0.345454
v 0.567322 0.079728 0.729767
v 0.244273 0.567255 0.423093
v 0.306440 0.079728 0.739194
v 0.126445 0.567255 0.471899
v 0.206734 0.079728 0.570078
v 0.000000 0.567255 0.488546
v -0.052085 0.079728 0.604152
v -0.126445 0.567255 0.471899
v -0.331738 0.079728 1.101348
v -0.244273 0.567255 0.423093
v -0.572919 0.079728 1.001447
v -0.345454 0.567255 0.345454
v -0.436263 0.079728 0.519600
v -0.423093 0.567255 0.244273
v -0.595182 0.079728 0.312493
v -0.471899 0.567255 0.126445
v -1.122394 0.079728 0.384141
v -0.488546 0.567255 0.000000
v -1.093542 0.079728 0.124688
v -0.471899 0.567255 -0.126445
v -0.653414 0.079728 -0.123397
v -0.423093 0.567255 -0.244273
v -0.553514 0.079728 -0.364578
v -0.345454 0.567255 -0.345454
v -0.825298 0.079728 -0.792380
v -0.244273 0.567255 -0.423093
v -0.590151 0.079728 -0.905756
v -0.322349 5.396024 0.086373
v -0.333721 5.396024 0.000000
v -0.126445 0.567255 -0.471899
v -0.262725 0.079728 -0.617534
v 0.086373 5.396024 -0.322349
v 0.000000 5.396024 -0.333721
v -0.086374 5.396024 -0.322349
v -0.166861 5.396024 -0.289010
v -0.235976 5.396024 -0.235976
v -0.289011 5.396024 -0.166860
v -0.322349 5.396024 -0.086373
v -0.289011 5.396024 0.166860
v -0.235976 5.396024 0.235976
v -0.166860 5.396024 0.289011
v -0.086373 5.396024 0.322349
v 0.000000 5.396024 0.333721
v 0.086373 5.396024 0.322349
v 0.166860 5.396024 0.289011
v 0.235976 5.396024 0.235976
v 0.289010 5.396024 0.166860
v 0.322349 5.396024 0.086373
v 0.333721 5.396024 0.000000
v 0.322349 5.396024 -0.086373
v 0.289010 5.396024 -0.166860
v 0.235976 5.396024 -0.235976
v 0.166860 5.396024 -0.289010

# UV coordinates
vt 0.246175 0.221264
vt 0.334116 0.237380
vt 0.323285 0.256300
vt 0.265390 0.250309
vt 0.307711 0.290599
vt 0.267868 0.266524
vt 0.289524 0.313653
vt 0.253472 0.278232
vt 0.269448 0.332634
vt 0.236773 0.294730
vt 0.248540 0.350445
vt 0.228626 0.309087
vt 0.219002 0.359898
vt 0.210592 0.312027
vt 0.193722 0.365291
vt 0.188071 0.305816
vt 0.167604 0.370631
vt 0.170798 0.306255
vt 0.140364 0.375360
vt 0.151339 0.308537
vt 0.115959 0.379037
vt 0.135789 0.290712
vt 0.097052 0.385200
vt 0.128019 0.264217
vt 0.076293 0.391232
vt 0.110457 0.267229
vt 0.056808 0.398298
vt 0.074556 0.280228
vt 0.030789 0.403529
vt 0.057617 0.278827
vt 0.014676 0.412717
vt 0.034398 0.223874
vt 0.000000 0.423567
vt 0.021232 0.165480
vt 0.326152 0.021370
vt 0.432214 0.111660
vt 0.417292 0.120558
vt 0.187060 0.000000
vt 0.403311 0.131944
vt 0.189728 0.036434
vt 0.390692 0.143457
vt 0.198593 0.091783
vt 0.379022 0.157811
vt 0.229520 0.117139
vt 0.368044 0.171495
vt 0.274289 0.160393
vt 0.356795 0.197557
vt 0.270514 0.177412
vt 0.779687 0.796178
vt 0.768826 0.802265
vt 0.345298 0.217585
vt 0.255311 0.201008
vt 0.657323 0.961686
vt 0.650080 0.974480
vt 0.640225 0.985326
vt 0.628281 0.993735
vt 0.614843 0.999341
vt 0.599588 0.999999
vt 0.584598 0.997416
vt 0.570629 0.990726
vt 0.558421 0.981316
vt 0.546201 0.969768
vt 0.553981 0.960497
vt 0.561471 0.950900
vt 0.570189 0.942496
vt 0.577464 0.932133
vt 0.585903 0.923019
vt 0.595426 0.914972
vt 0.606159 0.908100
vt 0.618000 0.902490
vt 0.628460 0.895394
vt 0.639089 0.888373
vt 0.648659 0.902679
vt 0.656286 0.917135
vt 0.660555 0.932094
vt 0.661600 0.947570
vt 0.725583 0.828276
vt 0.714800 0.835208
vt 0.649693 0.880272
vt 0.747156 0.814950
vt 0.736328 0.821531
vt 0.671219 0.864577
vt 0.660408 0.872337
vt 0.757983 0.808522
vt 0.703885 0.842305
vt 0.693031 0.849519
vt 0.682104 0.857011
vt 0.790633 0.790269

# vertex normals
vn -0.431312 -0.359410 -0.827523
vn -0.191698 0.193998 -0.962090
vn 0.035601 0.338112 -0.940432
vn -0.074501 -0.253702 -0.964409
vn 0.579143 0.376928 -0.722854
vn 0.667029 -0.253911 -0.700430
vn 0.760930 0.296311 -0.577222
vn 0.878582 -0.236122 -0.415139
vn 0.767006 0.299402 -0.567504
vn 0.673499 -0.270799 -0.687799
vn 0.884562 0.354325 -0.303321
vn 0.902937 -0.253410 -0.347114
vn 0.934538 0.317713 0.160306
vn 0.876001 -0.390700 0.282800
vn 0.903551 0.233113 0.359520
vn 0.796379 -0.413789 0.441088
vn 0.894641 0.219910 0.388918
vn 0.875443 -0.425621 0.229011
vn 0.716327 0.305312 0.627424
vn 0.672240 -0.262216 0.692341
vn 0.212997 0.285897 0.934289
vn -0.073303 -0.335615 0.939143
vn 0.054601 0.150402 0.987116
vn -0.206507 -0.355112 0.911730
vn 0.223013 0.150309 0.963157
vn 0.466790 -0.427491 0.774183
vn 0.016101 0.356727 0.934070
vn 0.110497 -0.228395 0.967278
vn -0.653245 0.380926 0.654345
vn -0.763426 -0.211107 0.610421
vn -0.826526 0.207606 0.523216
vn -0.917281 -0.330893 0.221595
vn -0.698419 0.216306 0.682219
vn -0.409711 -0.287208 0.865823
vn -0.809433 0.400416 0.429517
vn -0.790632 -0.161807 0.590524
vn -0.905562 0.351624 -0.237316
vn -0.901855 -0.286117 -0.323720
vn -0.887642 0.202510 -0.413620
vn -0.719603 -0.397002 -0.569703
vn -0.936962 0.204114 -0.283619
vn -0.943916 -0.329006 0.027900
vn -0.784720 0.381410 -0.488612
vn -0.885341 -0.190509 -0.424120
vn -0.228811 0.344317 -0.910545
vn -0.127704 -0.259609 -0.957233
vn -0.698695 0.690495 0.187199
vn -0.723317 0.690516 0.000000
vn -0.063301 0.186503 -0.980413
vn 0.219896 -0.384193 -0.896684
vn 0.187199 0.690495 -0.698695
vn 0.000000 0.690516 -0.723317
vn -0.187199 0.690495 -0.698695
vn -0.361614 0.690527 -0.626424
vn -0.511486 0.690481 -0.511486
vn -0.626424 0.690527 -0.361614
vn -0.698695 0.690495 -0.187199
vn -0.626424 0.690527 0.361614
vn -0.511486 0.690481 0.511486
vn -0.361614 0.690527 0.626424
vn -0.187199 0.690495 0.698695
vn 0.000000 0.690516 0.723317
vn 0.187199 0.690495 0.698695
vn 0.361614 0.690527 0.626424
vn 0.511486 0.690481 0.511486
vn 0.626424 0.690527 0.361614
vn 0.698695 0.690495 0.187199
vn 0.723317 0.690516 0.000000
vn 0.698695 0.690495 -0.187199
vn 0.626424 0.690527 -0.361614
vn 0.511486 0.690481 -0.511486
vn 0.361614 0.690527 -0.626424

# Mesh
g Cylinder_Cylinder.001
usemtl None
f 4/4/4 1/1/1 2/2/2
f 2/2/2 3/3/3 4/4/4
f 6/6/6 4/4/4 3/3/3
f 3/3/3 5/5/5 6/6/6
f 8/8/8 6/6/6 5/5/5
f 5/5/5 7/7/7 8/8/8
f 10/10/10 8/8/8 7/7/7
f 7/7/7 9/9/9 10/10/10
f 12/12/12 10/10/10 9/9/9
f 9/9/9 11/11/11 12/12/12
f 14/14/14 12/12/12 11/11/11
f 11/11/11 13/13/13 14/14/14
f 16/16/16 14/14/14 13/13/13
f 13/13/13 15/15/15 16/16/16
f 18/18/18 16/16/16 15/15/15
f 15/15/15 17/17/17 18/18/18
f 20/20/20 18/18/18 17/17/17
f 17/17/17 19/19/19 20/20/20
f 22/22/22 20/20/20 19/19/19
f 19/19/19 21/21/21 22/22/22
f 24/24/24 22/22/22 21/21/21
f 21/21/21 23/23/23 24/24/24
f 26/26/26 24/24/24 23/23/23
f 23/23/23 25/25/25 26/26/26
f 28/28/28 26/26/26 25/25/25
f 25/25/25 27/27/27 28/28/28
f 30/30/30 28/28/28 27/27/27
f 27/27/27 29/29/29 30/30/30
f 32/32/32 30/30/30 29/29/29
f 29/29/29 31/31/31 32/32/32
f 34/34/34 32/32/32 31/31/31
f 31/31/31 33/33/33 34/34/34
f 36/38/36 34/35/34 33/36/33
f 33/36/33 35/37/35 36/38/36
f 38/40/38 36/38/36 35/37/35
f 35/37/35 37/39/37 38/40/38
f 40/42/40 38/40/38 37/39/37
f 37/39/37 39/41/39 40/42/40
f 42/44/42 40/42/40 39/41/39
f 39/41/39 41/43/41 42/44/42
f 44/46/44 42/44/42 41/43/41
f 41/43/41 43/45/43 44/46/44
f 46/48/46 44/46/44 43/45/43
f 43/45/43 45/47/45 46/48/46
f 48/50/48 37/39/37 35/37/35
f 35/37/35 47/49/47 48/50/48
f 50/52/50 46/48/46 45/47/45
f 45/47/45 49/51/49 50/52/50
f 1/1/1 50/52/50 49/51/49
f 49/51/49 2/2/2 1/1/1
f 1/1/1 4/4/4 6/6/6
f 1/1/1 6/6/6 8/8/8
f 1/1/1 8/8/8 10/10/10
f 10/10/10 12/12/12 14/14/14
f 10/10/10 14/14/14 16/16/16
f 10/10/10 16/16/16 18/18/18
f 18/18/18 20/20/20 22/22/22
f 18/18/18 22/22/22 24/24/24
f 18/18/18 24/24/24 26/26/26
f 26/26/26 28/28/28 30/30/30
f 26/26/26 30/30/30 32/32/32
f 26/26/26 32/32/32 34/34/34
f 34/34/34 36/38/36 38/40/38
f 34/34/34 38/40/38 40/42/40
f 34/34/34 40/42/40 42/44/42
f 42/44/42 44/46/44 46/48/46
f 42/44/42 46/48/46 50/52/50
f 42/44/42 50/52/50 1/1/1
f 42/44/42 1/1/1 10/10/10
f 42/44/42 10/10/10 18/18/18
f 42/44/42 18/18/18 26/26/26
f 26/26/26 34/34/34 42/44/42
f 72/76/72 51/53/51 52/54/52
f 72/76/72 52/54/52 53/55/53
f 72/76/72 53/55/53 54/56/54
f 72/76/72 54/56/54 55/57/55
f 72/76/72 55/57/55 56/58/56
f 72/76/72 56/58/56 57/59/57
f 72/76/72 57/59/57 48/60/48
f 72/76/72 48/60/48 47/61/47
f 72/76/72 47/61/47 58/62/58
f 72/76/72 58/62/58 59/63/59
f 72/76/72 59/63/59 60/64/60
f 72/76/72 60/64/60 61/65/61
f 72/76/72 61/65/61 62/66/62
f 72/76/72 62/66/62 63/67/63
f 72/76/72 63/67/63 64/68/64
f 72/76/72 64/68/64 65/69/65
f 72/76/72 65/69/65 66/70/66
f 72/76/72 66/70/66 67/71/67
f 72/76/72 67/71/67 68/72/68
f 72/76/72 68/72/68 69/73/69
f 72/76/72 69/73/69 70/74/70
f 70/74/70 71/75/71 72/76/72
f 53/78/53 49/51/49 45/47/45
f 45/47/45 54/77/54 53/78/53
f 68/72/68 13/13/13 11/11/11
f 11/11/11 69/79/69 68/72/68
f 63/67/63 23/23/23 21/21/21
f 21/21/21 64/68/64 63/67/63
f 58/62/58 33/33/33 31/31/31
f 31/31/31 59/63/59 58/62/58
f 55/81/55 43/45/43 41/43/41
f 41/43/41 56/80/56 55/81/55
f 70/83/70 9/9/9 7/7/7
f 7/7/7 71/82/71 70/83/70
f 65/69/65 19/19/19 17/17/17
f 17/17/17 66/70/66 65/69/65
f 60/64/60 29/29/29 27/27/27
f 27/27/27 61/65/61 60/64/60
f 57/84/57 39/41/39 37/39/37
f 37/39/37 48/50/48 57/84/57
f 52/85/52 2/2/2 49/51/49
f 49/51/49 53/78/53 52/85/52
f 72/87/72 5/5/5 3/3/3
f 3/3/3 51/86/51 72/87/72
f 67/71/67 15/15/15 13/13/13
f 13/13/13 68/72/68 67/71/67
f 62/66/62 25/25/25 23/23/23
f 23/23/23 63/67/63 62/66/62
f 47/49/47 35/37/35 33/36/33
f 33/36/33 58/88/58 47/49/47
f 54/77/54 45/47/45 43/45/43
f 43/45/43 55/81/55 54/77/54
f 69/79/69 11/11/11 9/9/9
f 9/9/9 70/83/70 69/79/69
f 64/68/64 21/21/21 19/19/19
f 19/19/19 65/69/65 64/68/64
f 59/63/59 31/31/31 29/29/29
f 29/29/29 60/64/60 59/63/59
f 56/80/56 41/43/41 39/41/39
f 39/41/39 57/84/57 56/80/56
f 71/82/71 7/7/7 5/5/5
f 5/5/5 72/87/72 71/82/71
f 66/70/66 17/17/17 15/15/15
f 15/15/15 67/71/67 66/70/66
f 51/86/51 3/3/3 2/2/2
f 2/2/2 52/85/52 51/86/51
f 61/65/61 27/27/27 25/25/25
f 25/25/25 62/66/62 61/65/61
